<svg xmlns="http://www.w3.org/2000/svg" viewBox="0 0 100 100" width="100%" height="100%">
  <defs>
    <linearGradient id="dorado" x1="0%" y1="0%" x2="100%" y2="100%">
      <stop offset="0%" stop-color="#FFE259" />
      <stop offset="100%" stop-color="#FFA751" />
    </linearGradient>
  </defs>

  <path d="M 25 15 
           C 20 15, 15 20, 15 25 
           C 15 30, 20 35, 25 35 
           L 25 45 
           C 35 45, 40 43, 50 48 
           C 60 43, 65 45, 75 45 
           L 75 35 
           C 80 35, 85 30, 85 25 
           C 85 20, 80 15, 75 15 
           L 65 15 
           L 65 25 
           L 35 25 
           L 35 15 Z 
           M 25 45 
           L 25 75 
           C 20 75, 15 80, 15 85 
           C 15 90, 20 95, 25 95 
           L 35 95 
           L 35 85 
           L 65 85 
           L 65 95 
           L 75 95 
           C 80 95, 85 90, 85 85 
           C 85 80, 80 75, 75 75 
           L 75 45 
           M 35 55 
           L 65 55" 
        fill="url(#dorado)" 
        stroke="#D4AF37" 
        stroke-width="1.5" 
        stroke-linejoin="round" />
        
  <polygon points="50,20 52,27 59,29 52,31 50,38 48,31 41,29 48,27" fill="#FFFFFF" />
  <polygon points="78,60 79,64 83,65 79,66 78,70 77,66 73,65 77,64" fill="#FFFFFF" />
</svg>
